<svg width="130" height="32" viewBox="0 0 130 32" fill="none" xmlns="http://www.w3.org/2000/svg">
<rect x="8.5" y="4.5" width="23" height="23" rx="3.5" fill="#70C05B"/>
<rect x="8.5" y="4.5" width="23" height="23" rx="3.5" stroke="#F3F2F1"/>
<path fill-rule="evenodd" clip-rule="evenodd" d="M15 16C15 15.8159 15.1492 15.6667 15.3333 15.6667H24.6667C24.8508 15.6667 25 15.8159 25 16C25 16.1841 24.8508 16.3333 24.6667 16.3333H15.3333C15.1492 16.3333 15 16.1841 15 16Z" fill="white"/>
<path d="M42.4177 20C42.3377 20 42.2697 19.976 42.2137 19.928C42.1657 19.872 42.1417 19.804 42.1417 19.724V11.888C42.1417 11.8 42.1657 11.732 42.2137 11.684C42.2697 11.628 42.3377 11.6 42.4177 11.6H45.7057C46.5617 11.6 47.2057 11.804 47.6377 12.212C48.0697 12.62 48.2857 13.156 48.2857 13.82C48.2857 14.268 48.1817 14.64 47.9737 14.936C47.7737 15.232 47.5337 15.448 47.2537 15.584C47.5897 15.752 47.8737 16.012 48.1057 16.364C48.3377 16.716 48.4537 17.12 48.4537 17.576C48.4537 18.024 48.3497 18.432 48.1417 18.8C47.9417 19.168 47.6417 19.46 47.2417 19.676C46.8417 19.892 46.3617 20 45.8017 20H42.4177ZM45.5257 15.152C46.0297 15.152 46.4137 15.036 46.6777 14.804C46.9497 14.572 47.0857 14.248 47.0857 13.832C47.0857 13.424 46.9537 13.112 46.6897 12.896C46.4257 12.68 46.0377 12.572 45.5257 12.572H43.3177V15.152H45.5257ZM45.6457 19.028C46.1497 19.028 46.5417 18.892 46.8217 18.62C47.1097 18.348 47.2537 18 47.2537 17.576C47.2537 17.136 47.1097 16.784 46.8217 16.52C46.5417 16.248 46.1497 16.112 45.6457 16.112H43.3177V19.028H45.6457ZM50.2773 20C50.1973 20 50.1293 19.976 50.0733 19.928C50.0253 19.872 50.0013 19.804 50.0013 19.724V14.036C50.0013 13.956 50.0253 13.892 50.0733 13.844C50.1293 13.788 50.1973 13.76 50.2773 13.76H50.8533C50.9333 13.76 50.9973 13.788 51.0453 13.844C51.1013 13.892 51.1293 13.956 51.1293 14.036V15.8H52.3773C53.1693 15.8 53.7573 15.988 54.1413 16.364C54.5333 16.732 54.7293 17.256 54.7293 17.936C54.7293 18.64 54.5213 19.16 54.1053 19.496C53.6973 19.832 53.0733 20 52.2333 20H50.2773ZM55.8573 20C55.7773 20 55.7093 19.976 55.6533 19.928C55.6053 19.872 55.5813 19.804 55.5813 19.724V14.036C55.5813 13.956 55.6053 13.892 55.6533 13.844C55.7093 13.788 55.7773 13.76 55.8573 13.76H56.4333C56.5133 13.76 56.5773 13.788 56.6253 13.844C56.6813 13.892 56.7093 13.956 56.7093 14.036V19.724C56.7093 19.804 56.6813 19.872 56.6253 19.928C56.5773 19.976 56.5133 20 56.4333 20H55.8573ZM52.2693 19.1C52.7653 19.1 53.1213 19.012 53.3373 18.836C53.5613 18.66 53.6733 18.36 53.6733 17.936C53.6733 17.512 53.5613 17.2 53.3373 17C53.1213 16.8 52.7653 16.7 52.2693 16.7H51.1173V19.1H52.2693ZM58.1374 21.32C58.0574 21.32 57.9894 21.292 57.9334 21.236C57.8854 21.188 57.8614 21.124 57.8614 21.044V19.316C57.8614 19.236 57.8854 19.172 57.9334 19.124C57.9894 19.068 58.0574 19.04 58.1374 19.04H58.1974C58.5334 19.032 58.7854 18.752 58.9534 18.2C59.1294 17.648 59.2174 16.772 59.2174 15.572V14.036C59.2174 13.956 59.2414 13.892 59.2894 13.844C59.3454 13.788 59.4134 13.76 59.4934 13.76H63.3214C63.4014 13.76 63.4654 13.788 63.5134 13.844C63.5694 13.892 63.5974 13.956 63.5974 14.036V19.016H64.1614C64.2414 19.016 64.3054 19.044 64.3534 19.1C64.4094 19.148 64.4374 19.212 64.4374 19.292V21.044C64.4374 21.124 64.4094 21.188 64.3534 21.236C64.3054 21.292 64.2414 21.32 64.1614 21.32H63.5974C63.5174 21.32 63.4494 21.292 63.3934 21.236C63.3454 21.188 63.3214 21.124 63.3214 21.044V20H58.9774V21.044C58.9774 21.124 58.9494 21.188 58.8934 21.236C58.8454 21.292 58.7814 21.32 58.7014 21.32H58.1374ZM62.4814 19.016V14.72H60.3094V15.704C60.3094 17.304 60.0814 18.416 59.6254 19.04L62.4814 19.016ZM68.1887 20.12C67.3647 20.12 66.7047 19.868 66.2087 19.364C65.7207 18.852 65.4527 18.156 65.4047 17.276L65.3927 16.868L65.4047 16.472C65.4607 15.608 65.7327 14.92 66.2207 14.408C66.7167 13.896 67.3687 13.64 68.1767 13.64C69.0647 13.64 69.7527 13.924 70.2407 14.492C70.7287 15.052 70.9727 15.812 70.9727 16.772V16.976C70.9727 17.056 70.9447 17.124 70.8887 17.18C70.8407 17.228 70.7767 17.252 70.6967 17.252H66.5447V17.36C66.5687 17.88 66.7247 18.324 67.0127 18.692C67.3087 19.052 67.6967 19.232 68.1767 19.232C68.5447 19.232 68.8447 19.16 69.0767 19.016C69.3167 18.864 69.4927 18.708 69.6047 18.548C69.6767 18.452 69.7287 18.396 69.7607 18.38C69.8007 18.356 69.8687 18.344 69.9647 18.344H70.5527C70.6247 18.344 70.6847 18.364 70.7327 18.404C70.7807 18.444 70.8047 18.5 70.8047 18.572C70.8047 18.748 70.6927 18.96 70.4687 19.208C70.2527 19.456 69.9447 19.672 69.5447 19.856C69.1527 20.032 68.7007 20.12 68.1887 20.12ZM69.8327 16.424V16.388C69.8327 15.836 69.6807 15.388 69.3767 15.044C69.0807 14.692 68.6807 14.516 68.1767 14.516C67.6727 14.516 67.2727 14.692 66.9767 15.044C66.6887 15.388 66.5447 15.836 66.5447 16.388V16.424H69.8327ZM72.0607 20C71.9807 20 71.9127 19.972 71.8567 19.916C71.8007 19.86 71.7727 19.792 71.7727 19.712V19.268C71.7727 19.188 71.7967 19.124 71.8447 19.076C71.8927 19.028 71.9527 19.004 72.0247 19.004C72.4087 18.988 72.6927 18.716 72.8767 18.188C73.0687 17.652 73.1647 16.78 73.1647 15.572V14.036C73.1647 13.956 73.1887 13.892 73.2367 13.844C73.2927 13.788 73.3607 13.76 73.4407 13.76H77.2567C77.3367 13.76 77.4007 13.788 77.4487 13.844C77.5047 13.892 77.5327 13.956 77.5327 14.036V19.724C77.5327 19.804 77.5047 19.872 77.4487 19.928C77.4007 19.976 77.3367 20 77.2567 20H76.6807C76.6007 20 76.5367 19.976 76.4887 19.928C76.4407 19.872 76.4167 19.804 76.4167 19.724V14.72H74.2567V15.704C74.2567 17.232 74.0807 18.332 73.7287 19.004C73.3767 19.668 72.8207 20 72.0607 20ZM84.6256 13.76C84.6896 13.76 84.7456 13.784 84.7936 13.832C84.8496 13.88 84.8776 13.936 84.8776 14V19.724C84.8776 19.804 84.8496 19.872 84.7936 19.928C84.7456 19.976 84.6816 20 84.6016 20H84.0376C83.9576 20 83.8896 19.976 83.8336 19.928C83.7856 19.872 83.7616 19.804 83.7616 19.724V15.368L80.4376 19.82C80.3496 19.94 80.2456 20 80.1256 20H79.5856C79.5136 20 79.4496 19.976 79.3936 19.928C79.3456 19.872 79.3216 19.812 79.3216 19.748V14.036C79.3216 13.956 79.3456 13.892 79.3936 13.844C79.4496 13.788 79.5176 13.76 79.5976 13.76H80.1736C80.2536 13.76 80.3176 13.788 80.3656 13.844C80.4216 13.892 80.4496 13.956 80.4496 14.036V18.368L83.7616 13.94C83.8496 13.82 83.9536 13.76 84.0736 13.76H84.6256ZM88.5421 20C88.4621 20 88.3941 19.976 88.3381 19.928C88.2901 19.872 88.2661 19.804 88.2661 19.724V14.72H86.1781C86.0981 14.72 86.0301 14.696 85.9741 14.648C85.9261 14.592 85.9021 14.524 85.9021 14.444V14.036C85.9021 13.956 85.9261 13.892 85.9741 13.844C86.0301 13.788 86.0981 13.76 86.1781 13.76H91.4581C91.5381 13.76 91.6021 13.788 91.6501 13.844C91.7061 13.892 91.7341 13.956 91.7341 14.036V14.444C91.7341 14.524 91.7061 14.592 91.6501 14.648C91.6021 14.696 91.5381 14.72 91.4581 14.72H89.3701V19.724C89.3701 19.804 89.3461 19.872 89.2981 19.928C89.2501 19.976 89.1861 20 89.1061 20H88.5421ZM93.0507 20C92.9707 20 92.9027 19.976 92.8467 19.928C92.7987 19.872 92.7747 19.804 92.7747 19.724V14.036C92.7747 13.956 92.7987 13.892 92.8467 13.844C92.9027 13.788 92.9707 13.76 93.0507 13.76H93.6267C93.7067 13.76 93.7707 13.788 93.8187 13.844C93.8747 13.892 93.9027 13.956 93.9027 14.036V15.8H95.2467C96.0387 15.8 96.6267 15.988 97.0107 16.364C97.4027 16.732 97.5987 17.256 97.5987 17.936C97.5987 18.64 97.3907 19.16 96.9747 19.496C96.5667 19.832 95.9427 20 95.1027 20H93.0507ZM95.1507 19.1C95.6387 19.1 95.9907 19.012 96.2067 18.836C96.4307 18.66 96.5427 18.36 96.5427 17.936C96.5427 17.512 96.4307 17.2 96.2067 17C95.9907 16.8 95.6387 16.7 95.1507 16.7H93.8907V19.1H95.1507ZM102.004 20C101.924 20 101.856 19.976 101.8 19.928C101.752 19.872 101.728 19.804 101.728 19.724V14.036C101.728 13.956 101.752 13.892 101.8 13.844C101.856 13.788 101.924 13.76 102.004 13.76H104.5C105.236 13.76 105.796 13.912 106.18 14.216C106.572 14.512 106.768 14.92 106.768 15.44C106.768 15.784 106.704 16.052 106.576 16.244C106.448 16.428 106.252 16.588 105.988 16.724C106.276 16.844 106.5 17.044 106.66 17.324C106.828 17.604 106.912 17.904 106.912 18.224C106.912 18.8 106.708 19.24 106.3 19.544C105.9 19.848 105.332 20 104.596 20H102.004ZM104.428 16.412C104.82 16.412 105.128 16.328 105.352 16.16C105.576 15.992 105.688 15.756 105.688 15.452C105.688 15.156 105.58 14.948 105.364 14.828C105.148 14.7 104.836 14.636 104.428 14.636H102.832V16.412H104.428ZM104.5 19.124C104.9 19.124 105.212 19.048 105.436 18.896C105.668 18.744 105.784 18.52 105.784 18.224C105.784 17.904 105.68 17.672 105.472 17.528C105.264 17.376 104.94 17.3 104.5 17.3H102.832V19.124H104.5ZM110.974 20.12C110.118 20.12 109.446 19.88 108.958 19.4C108.478 18.912 108.222 18.232 108.19 17.36L108.178 16.88L108.19 16.4C108.222 15.528 108.478 14.852 108.958 14.372C109.446 13.884 110.118 13.64 110.974 13.64C111.55 13.64 112.038 13.744 112.438 13.952C112.838 14.16 113.134 14.416 113.326 14.72C113.526 15.024 113.634 15.328 113.65 15.632C113.658 15.712 113.634 15.776 113.578 15.824C113.522 15.872 113.454 15.896 113.374 15.896H112.798C112.718 15.896 112.658 15.88 112.618 15.848C112.578 15.816 112.538 15.752 112.498 15.656C112.362 15.272 112.17 15 111.922 14.84C111.674 14.672 111.362 14.588 110.986 14.588C110.49 14.588 110.094 14.744 109.798 15.056C109.51 15.36 109.354 15.828 109.33 16.46L109.318 16.892L109.33 17.3C109.354 17.94 109.51 18.412 109.798 18.716C110.086 19.02 110.482 19.172 110.986 19.172C111.362 19.172 111.674 19.092 111.922 18.932C112.17 18.764 112.362 18.488 112.498 18.104C112.538 18.008 112.578 17.944 112.618 17.912C112.658 17.872 112.718 17.852 112.798 17.852H113.374C113.454 17.852 113.522 17.88 113.578 17.936C113.634 17.984 113.658 18.048 113.65 18.128C113.634 18.424 113.526 18.728 113.326 19.04C113.134 19.344 112.838 19.6 112.438 19.808C112.046 20.016 111.558 20.12 110.974 20.12ZM117.572 20.12C116.748 20.12 116.088 19.868 115.592 19.364C115.104 18.852 114.836 18.156 114.788 17.276L114.776 16.868L114.788 16.472C114.844 15.608 115.116 14.92 115.604 14.408C116.1 13.896 116.752 13.64 117.56 13.64C118.448 13.64 119.136 13.924 119.624 14.492C120.112 15.052 120.355 15.812 120.355 16.772V16.976C120.355 17.056 120.328 17.124 120.272 17.18C120.224 17.228 120.16 17.252 120.08 17.252H115.928V17.36C115.952 17.88 116.108 18.324 116.396 18.692C116.692 19.052 117.08 19.232 117.56 19.232C117.928 19.232 118.228 19.16 118.46 19.016C118.7 18.864 118.876 18.708 118.988 18.548C119.06 18.452 119.112 18.396 119.144 18.38C119.184 18.356 119.252 18.344 119.348 18.344H119.936C120.008 18.344 120.068 18.364 120.116 18.404C120.164 18.444 120.188 18.5 120.188 18.572C120.188 18.748 120.076 18.96 119.852 19.208C119.636 19.456 119.328 19.672 118.928 19.856C118.536 20.032 118.084 20.12 117.572 20.12ZM119.216 16.424V16.388C119.216 15.836 119.064 15.388 118.76 15.044C118.464 14.692 118.064 14.516 117.56 14.516C117.056 14.516 116.656 14.692 116.36 15.044C116.072 15.388 115.928 15.836 115.928 16.388V16.424H119.216ZM116.252 12.548C116.172 12.548 116.108 12.524 116.06 12.476C116.012 12.428 115.988 12.364 115.988 12.284V11.636C115.988 11.556 116.012 11.492 116.06 11.444C116.108 11.388 116.172 11.36 116.252 11.36H116.912C116.992 11.36 117.056 11.388 117.104 11.444C117.16 11.492 117.188 11.556 117.188 11.636V12.284C117.188 12.364 117.16 12.428 117.104 12.476C117.056 12.524 116.992 12.548 116.912 12.548H116.252ZM118.292 12.548C118.212 12.548 118.144 12.524 118.088 12.476C118.04 12.428 118.016 12.364 118.016 12.284V11.636C118.016 11.556 118.04 11.492 118.088 11.444C118.144 11.388 118.212 11.36 118.292 11.36H118.94C119.02 11.36 119.084 11.388 119.132 11.444C119.188 11.492 119.216 11.556 119.216 11.636V12.284C119.216 12.364 119.188 12.428 119.132 12.476C119.084 12.524 119.02 12.548 118.94 12.548H118.292Z" fill="#606060"/>
</svg>
