<svg width="59" height="42" viewBox="0 0 59 42" fill="none" xmlns="http://www.w3.org/2000/svg">
<path d="M4.672 17.16C3.86133 17.16 3.16267 17.016 2.576 16.728C1.98933 16.44 1.536 16.0613 1.216 15.592C0.906667 15.1227 0.741333 14.6213 0.72 14.088V14.056C0.72 13.9707 0.752 13.9013 0.816 13.848C0.88 13.7947 0.954667 13.768 1.04 13.768H1.904C2.128 13.768 2.272 13.8853 2.336 14.12C2.48533 14.6853 2.77333 15.1067 3.2 15.384C3.62667 15.6613 4.11733 15.8 4.672 15.8C5.38667 15.8 5.97867 15.5867 6.448 15.16C6.928 14.7227 7.168 14.12 7.168 13.352C7.168 12.6587 6.928 12.0987 6.448 11.672C5.97867 11.2453 5.38667 11.032 4.672 11.032C4.288 11.032 3.97867 11.0853 3.744 11.192C3.50933 11.288 3.27467 11.4267 3.04 11.608C2.912 11.704 2.8 11.7787 2.704 11.832C2.61867 11.8747 2.52267 11.896 2.416 11.896H1.584C1.488 11.896 1.40267 11.864 1.328 11.8C1.25333 11.7253 1.22133 11.64 1.232 11.544L1.744 6.2C1.75467 6.072 1.792 5.976 1.856 5.912C1.93067 5.83733 2.02667 5.8 2.144 5.8H7.728C7.83467 5.8 7.92 5.83733 7.984 5.912C8.05867 5.976 8.096 6.06133 8.096 6.168V6.792C8.096 6.89867 8.05867 6.98933 7.984 7.064C7.92 7.128 7.83467 7.16 7.728 7.16H3.12L2.816 10.312C3.392 9.94933 4.08533 9.768 4.896 9.768C5.6 9.768 6.24533 9.912 6.832 10.2C7.42933 10.488 7.89867 10.904 8.24 11.448C8.592 11.992 8.768 12.632 8.768 13.368C8.768 14.1573 8.592 14.84 8.24 15.416C7.89867 15.9813 7.41867 16.4133 6.8 16.712C6.18133 17.0107 5.472 17.16 4.672 17.16ZM14.572 17.16C13.196 17.16 12.188 16.76 11.548 15.96C10.908 15.16 10.5667 14.1093 10.524 12.808C10.5133 12.52 10.508 12.056 10.508 11.416C10.508 10.7547 10.5133 10.2747 10.524 9.976C10.556 8.696 10.8973 7.656 11.548 6.856C12.1987 6.04533 13.2067 5.64 14.572 5.64C15.948 5.64 16.9613 6.04533 17.612 6.856C18.2627 7.656 18.604 8.696 18.636 9.976C18.6573 10.5733 18.668 11.0533 18.668 11.416C18.668 11.768 18.6573 12.232 18.636 12.808C18.5933 14.1093 18.252 15.16 17.612 15.96C16.972 16.76 15.9587 17.16 14.572 17.16ZM14.572 15.784C15.372 15.784 15.9747 15.5173 16.38 14.984C16.796 14.4507 17.0147 13.6987 17.036 12.728C17.0573 12.1093 17.068 11.6613 17.068 11.384C17.068 11.0853 17.0573 10.648 17.036 10.072C17.0147 9.112 16.8013 8.36 16.396 7.816C15.9907 7.272 15.3827 7 14.572 7C13.772 7 13.164 7.272 12.748 7.816C12.3427 8.36 12.1293 9.112 12.108 10.072L12.092 11.384L12.108 12.728C12.1293 13.6987 12.3427 14.4507 12.748 14.984C13.164 15.5173 13.772 15.784 14.572 15.784ZM20.4939 18.2C20.4085 18.2 20.3392 18.168 20.2859 18.104C20.2432 18.04 20.2272 17.96 20.2379 17.864L20.6059 15.576C20.6485 15.2667 20.7979 15.112 21.0539 15.112H22.1259C22.2005 15.112 22.2592 15.1387 22.3019 15.192C22.3552 15.2453 22.3819 15.3093 22.3819 15.384C22.3819 15.4373 22.3659 15.5227 22.3339 15.64L21.4859 17.832C21.4325 17.96 21.3739 18.0507 21.3099 18.104C21.2459 18.168 21.1499 18.2 21.0219 18.2H20.4939ZM28.0783 17.16C27.2676 17.16 26.5689 17.016 25.9823 16.728C25.3956 16.44 24.9423 16.0613 24.6223 15.592C24.3129 15.1227 24.1476 14.6213 24.1263 14.088V14.056C24.1263 13.9707 24.1583 13.9013 24.2223 13.848C24.2863 13.7947 24.3609 13.768 24.4463 13.768H25.3103C25.5343 13.768 25.6783 13.8853 25.7423 14.12C25.8916 14.6853 26.1796 15.1067 26.6063 15.384C27.0329 15.6613 27.5236 15.8 28.0783 15.8C28.7929 15.8 29.3849 15.5867 29.8543 15.16C30.3343 14.7227 30.5743 14.12 30.5743 13.352C30.5743 12.6587 30.3343 12.0987 29.8543 11.672C29.3849 11.2453 28.7929 11.032 28.0783 11.032C27.6943 11.032 27.3849 11.0853 27.1503 11.192C26.9156 11.288 26.6809 11.4267 26.4463 11.608C26.3183 11.704 26.2063 11.7787 26.1103 11.832C26.0249 11.8747 25.9289 11.896 25.8223 11.896H24.9903C24.8943 11.896 24.8089 11.864 24.7343 11.8C24.6596 11.7253 24.6276 11.64 24.6383 11.544L25.1503 6.2C25.1609 6.072 25.1983 5.976 25.2623 5.912C25.3369 5.83733 25.4329 5.8 25.5503 5.8H31.1343C31.2409 5.8 31.3263 5.83733 31.3903 5.912C31.4649 5.976 31.5023 6.06133 31.5023 6.168V6.792C31.5023 6.89867 31.4649 6.98933 31.3903 7.064C31.3263 7.128 31.2409 7.16 31.1343 7.16H26.5263L26.2223 10.312C26.7983 9.94933 27.4916 9.768 28.3023 9.768C29.0063 9.768 29.6516 9.912 30.2383 10.2C30.8356 10.488 31.3049 10.904 31.6463 11.448C31.9983 11.992 32.1743 12.632 32.1743 13.368C32.1743 14.1573 31.9983 14.84 31.6463 15.416C31.3049 15.9813 30.8249 16.4133 30.2063 16.712C29.5876 17.0107 28.8783 17.16 28.0783 17.16ZM37.9783 17.16C36.6023 17.16 35.5943 16.76 34.9543 15.96C34.3143 15.16 33.9729 14.1093 33.9303 12.808C33.9196 12.52 33.9143 12.056 33.9143 11.416C33.9143 10.7547 33.9196 10.2747 33.9303 9.976C33.9623 8.696 34.3036 7.656 34.9543 6.856C35.6049 6.04533 36.6129 5.64 37.9783 5.64C39.3543 5.64 40.3676 6.04533 41.0183 6.856C41.6689 7.656 42.0103 8.696 42.0423 9.976C42.0636 10.5733 42.0743 11.0533 42.0743 11.416C42.0743 11.768 42.0636 12.232 42.0423 12.808C41.9996 14.1093 41.6583 15.16 41.0183 15.96C40.3783 16.76 39.3649 17.16 37.9783 17.16ZM37.9783 15.784C38.7783 15.784 39.3809 15.5173 39.7863 14.984C40.2023 14.4507 40.4209 13.6987 40.4423 12.728C40.4636 12.1093 40.4743 11.6613 40.4743 11.384C40.4743 11.0853 40.4636 10.648 40.4423 10.072C40.4209 9.112 40.2076 8.36 39.8023 7.816C39.3969 7.272 38.7889 7 37.9783 7C37.1783 7 36.5703 7.272 36.1543 7.816C35.7489 8.36 35.5356 9.112 35.5143 10.072L35.4983 11.384L35.5143 12.728C35.5356 13.6987 35.7489 14.4507 36.1543 14.984C36.5703 15.5173 37.1783 15.784 37.9783 15.784Z" fill="#606060"/>
<path d="M50.208 17C50.1013 17 50.0107 16.968 49.936 16.904C49.872 16.8293 49.84 16.7387 49.84 16.632V14.584H48.608C48.5013 14.584 48.4107 14.552 48.336 14.488C48.272 14.4133 48.24 14.3227 48.24 14.216V13.848C48.24 13.7413 48.272 13.656 48.336 13.592C48.4107 13.5173 48.5013 13.48 48.608 13.48H49.84V12.568H48.608C48.5013 12.568 48.4107 12.536 48.336 12.472C48.272 12.3973 48.24 12.3067 48.24 12.2V11.656C48.24 11.5493 48.272 11.464 48.336 11.4C48.4107 11.3253 48.5013 11.288 48.608 11.288H49.84V6.184C49.84 6.06667 49.872 5.976 49.936 5.912C50.0107 5.83733 50.1013 5.8 50.208 5.8H54.272C55.4773 5.8 56.4267 6.09333 57.12 6.68C57.8133 7.26667 58.16 8.11467 58.16 9.224C58.16 10.312 57.8133 11.144 57.12 11.72C56.4373 12.2853 55.488 12.568 54.272 12.568H51.44V13.48H54.528C54.6347 13.48 54.72 13.5173 54.784 13.592C54.8587 13.656 54.896 13.7413 54.896 13.848V14.216C54.896 14.3227 54.8587 14.4133 54.784 14.488C54.72 14.552 54.6347 14.584 54.528 14.584H51.44V16.632C51.44 16.7387 51.4027 16.8293 51.328 16.904C51.2533 16.968 51.1627 17 51.056 17H50.208ZM54.192 11.288C54.9707 11.288 55.5573 11.112 55.952 10.76C56.3573 10.408 56.56 9.896 56.56 9.224C56.56 8.552 56.3627 8.04 55.968 7.688C55.5733 7.32533 54.9813 7.144 54.192 7.144H51.424V11.288H54.192Z" fill="#606060"/>
<path d="M12.068 37.12C11.02 37.12 10.208 36.848 9.632 36.304C9.064 35.752 8.764 34.924 8.732 33.82C8.724 33.58 8.72 33.24 8.72 32.8C8.72 32.36 8.724 32.024 8.732 31.792C8.764 30.712 9.076 29.892 9.668 29.332C10.26 28.764 11.06 28.48 12.068 28.48C13.068 28.48 13.864 28.764 14.456 29.332C15.048 29.892 15.36 30.712 15.392 31.792C15.408 32.256 15.416 32.592 15.416 32.8C15.416 33 15.408 33.34 15.392 33.82C15.36 34.924 15.056 35.752 14.48 36.304C13.912 36.848 13.108 37.12 12.068 37.12ZM12.068 36.1C12.7 36.1 13.204 35.908 13.58 35.524C13.956 35.14 14.16 34.552 14.192 33.76C14.208 33.28 14.216 32.96 14.216 32.8C14.216 32.624 14.208 32.304 14.192 31.84C14.16 31.048 13.952 30.46 13.568 30.076C13.192 29.692 12.692 29.5 12.068 29.5C11.436 29.5 10.928 29.692 10.544 30.076C10.168 30.46 9.964 31.048 9.932 31.84C9.924 32.072 9.92 32.392 9.92 32.8C9.92 33.2 9.924 33.52 9.932 33.76C9.964 34.552 10.168 35.14 10.544 35.524C10.928 35.908 11.436 36.1 12.068 36.1ZM22.4691 33.736C22.4771 33.816 22.4811 33.944 22.4811 34.12C22.4811 34.272 22.4771 34.38 22.4691 34.444C22.4371 35.252 22.1771 35.9 21.6891 36.388C21.2091 36.876 20.5291 37.12 19.6491 37.12C18.7451 37.12 18.0571 36.864 17.5851 36.352C17.1131 35.84 16.8611 35.136 16.8291 34.24L16.8171 33.52L16.8291 32.8C16.8371 31.656 16.9891 30.8 17.2851 30.232C17.5891 29.656 18.0171 29.244 18.5691 28.996C19.1291 28.74 20.0331 28.448 21.2811 28.12L21.5691 28.048L21.6291 28.036C21.6931 28.036 21.7491 28.06 21.7971 28.108C21.8531 28.148 21.8851 28.196 21.8931 28.252L21.9891 28.744L22.0011 28.816C22.0011 28.872 21.9811 28.92 21.9411 28.96C21.9091 29 21.8611 29.028 21.7971 29.044L21.1971 29.188C20.2771 29.412 19.6171 29.604 19.2171 29.764C18.8171 29.924 18.5051 30.176 18.2811 30.52C18.0651 30.856 17.9451 31.36 17.9211 32.032C18.1131 31.744 18.3851 31.512 18.7371 31.336C19.0891 31.152 19.4611 31.06 19.8531 31.06C20.6611 31.06 21.2891 31.308 21.7371 31.804C22.1931 32.292 22.4371 32.936 22.4691 33.736ZM21.3171 34.396C21.3251 34.34 21.3291 34.248 21.3291 34.12C21.3291 33.976 21.3251 33.868 21.3171 33.796C21.3011 33.212 21.1491 32.76 20.8611 32.44C20.5811 32.112 20.2131 31.948 19.7571 31.948C19.2451 31.948 18.8251 32.112 18.4971 32.44C18.1771 32.76 18.0051 33.212 17.9811 33.796L17.9691 34.12L17.9811 34.396C18.0051 34.988 18.1651 35.444 18.4611 35.764C18.7571 36.076 19.1531 36.232 19.6491 36.232C20.1531 36.232 20.5531 36.076 20.8491 35.764C21.1451 35.444 21.3011 34.988 21.3171 34.396ZM24.2578 37C24.1778 37 24.1098 36.976 24.0538 36.928C24.0058 36.872 23.9818 36.804 23.9818 36.724V31.036C23.9818 30.956 24.0058 30.892 24.0538 30.844C24.1098 30.788 24.1778 30.76 24.2578 30.76H24.8338C24.9138 30.76 24.9778 30.788 25.0258 30.844C25.0818 30.892 25.1098 30.956 25.1098 31.036V32.8H26.3578C27.1498 32.8 27.7378 32.988 28.1218 33.364C28.5138 33.732 28.7098 34.256 28.7098 34.936C28.7098 35.64 28.5018 36.16 28.0858 36.496C27.6778 36.832 27.0538 37 26.2138 37H24.2578ZM29.8378 37C29.7578 37 29.6898 36.976 29.6338 36.928C29.5858 36.872 29.5618 36.804 29.5618 36.724V31.036C29.5618 30.956 29.5858 30.892 29.6338 30.844C29.6898 30.788 29.7578 30.76 29.8378 30.76H30.4138C30.4938 30.76 30.5578 30.788 30.6058 30.844C30.6618 30.892 30.6898 30.956 30.6898 31.036V36.724C30.6898 36.804 30.6618 36.872 30.6058 36.928C30.5578 36.976 30.4938 37 30.4138 37H29.8378ZM26.2498 36.1C26.7458 36.1 27.1018 36.012 27.3178 35.836C27.5418 35.66 27.6538 35.36 27.6538 34.936C27.6538 34.512 27.5418 34.2 27.3178 34C27.1018 33.8 26.7458 33.7 26.2498 33.7H25.0978V36.1H26.2498ZM36.4138 37C36.3338 37 36.2658 36.976 36.2098 36.928C36.1618 36.872 36.1378 36.804 36.1378 36.724V34.468C35.7298 34.852 35.1178 35.044 34.3018 35.044C33.5738 35.044 33.0218 34.884 32.6458 34.564C32.2698 34.244 32.0818 33.744 32.0818 33.064V31.036C32.0818 30.956 32.1058 30.892 32.1538 30.844C32.2098 30.788 32.2778 30.76 32.3578 30.76H32.9458C33.0258 30.76 33.0898 30.788 33.1378 30.844C33.1938 30.892 33.2218 30.956 33.2218 31.036V32.992C33.2218 33.352 33.3258 33.616 33.5338 33.784C33.7418 33.944 34.0698 34.024 34.5178 34.024C35.0378 34.024 35.4378 33.96 35.7178 33.832C35.9978 33.704 36.1378 33.488 36.1378 33.184V31.036C36.1378 30.956 36.1618 30.892 36.2098 30.844C36.2658 30.788 36.3338 30.76 36.4138 30.76H37.0138C37.0938 30.76 37.1578 30.788 37.2058 30.844C37.2618 30.892 37.2898 30.956 37.2898 31.036V36.724C37.2898 36.804 37.2618 36.872 37.2058 36.928C37.1578 36.976 37.0938 37 37.0138 37H36.4138ZM39.3515 37C39.2715 37 39.2035 36.976 39.1475 36.928C39.0995 36.872 39.0755 36.804 39.0755 36.724V31.036C39.0755 30.956 39.0995 30.892 39.1475 30.844C39.2035 30.788 39.2715 30.76 39.3515 30.76H39.9275C40.0075 30.76 40.0715 30.788 40.1195 30.844C40.1755 30.892 40.2035 30.956 40.2035 31.036V33.34H43.4675V31.036C43.4675 30.956 43.4915 30.892 43.5395 30.844C43.5955 30.788 43.6635 30.76 43.7435 30.76H44.3075C44.3875 30.76 44.4515 30.788 44.4995 30.844C44.5555 30.892 44.5835 30.956 44.5835 31.036V36.724C44.5835 36.804 44.5555 36.872 44.4995 36.928C44.4515 36.976 44.3875 37 44.3075 37H43.7435C43.6635 37 43.5955 36.976 43.5395 36.928C43.4915 36.872 43.4675 36.804 43.4675 36.724V34.3H40.2035V36.724C40.2035 36.804 40.1755 36.872 40.1195 36.928C40.0715 36.976 40.0075 37 39.9275 37H39.3515ZM48.128 37.12C47.736 37.12 47.372 37.04 47.036 36.88C46.7 36.72 46.432 36.504 46.232 36.232C46.04 35.952 45.944 35.644 45.944 35.308C45.944 34.78 46.16 34.348 46.592 34.012C47.032 33.668 47.624 33.444 48.368 33.34L50.156 33.088V32.74C50.156 31.924 49.688 31.516 48.752 31.516C48.4 31.516 48.112 31.592 47.888 31.744C47.664 31.888 47.496 32.06 47.384 32.26C47.36 32.332 47.328 32.384 47.288 32.416C47.256 32.448 47.208 32.464 47.144 32.464H46.628C46.556 32.464 46.492 32.44 46.436 32.392C46.388 32.336 46.364 32.272 46.364 32.2C46.372 32.008 46.46 31.792 46.628 31.552C46.804 31.304 47.072 31.092 47.432 30.916C47.792 30.732 48.236 30.64 48.764 30.64C49.66 30.64 50.304 30.852 50.696 31.276C51.088 31.692 51.284 32.212 51.284 32.836V36.724C51.284 36.804 51.256 36.872 51.2 36.928C51.152 36.976 51.088 37 51.008 37H50.456C50.376 37 50.308 36.976 50.252 36.928C50.204 36.872 50.18 36.804 50.18 36.724V36.208C50.004 36.464 49.748 36.68 49.412 36.856C49.076 37.032 48.648 37.12 48.128 37.12ZM48.38 36.22C48.9 36.22 49.324 36.052 49.652 35.716C49.988 35.372 50.156 34.88 50.156 34.24V33.904L48.764 34.108C48.196 34.188 47.768 34.324 47.48 34.516C47.192 34.7 47.048 34.936 47.048 35.224C47.048 35.544 47.18 35.792 47.444 35.968C47.708 36.136 48.02 36.22 48.38 36.22ZM57.4731 30.76C57.5531 30.76 57.6171 30.788 57.6651 30.844C57.7211 30.892 57.7491 30.956 57.7491 31.036V36.724C57.7491 36.804 57.7211 36.872 57.6651 36.928C57.6171 36.976 57.5531 37 57.4731 37H56.8971C56.8171 37 56.7491 36.976 56.6931 36.928C56.6451 36.872 56.6211 36.804 56.6211 36.724V34.768H55.3371L53.9811 36.82C53.9491 36.868 53.9051 36.912 53.8491 36.952C53.7931 36.984 53.7331 37 53.6691 37H53.0931C53.0211 37 52.9611 36.976 52.9131 36.928C52.8651 36.88 52.8411 36.824 52.8411 36.76C52.8411 36.68 52.8691 36.608 52.9251 36.544L54.2691 34.564C53.8531 34.42 53.5411 34.192 53.3331 33.88C53.1251 33.56 53.0211 33.176 53.0211 32.728C53.0211 32.056 53.2171 31.56 53.6091 31.24C54.0091 30.92 54.6091 30.76 55.4091 30.76H57.4731ZM56.6331 31.66H55.3731C54.9171 31.66 54.5851 31.74 54.3771 31.9C54.1691 32.06 54.0651 32.336 54.0651 32.728C54.0651 33.072 54.1651 33.348 54.3651 33.556C54.5731 33.764 54.8771 33.868 55.2771 33.868H56.6331V31.66Z" fill="#BFBFBF"/>
</svg>
