<svg width="71" height="45" viewBox="0 0 71 45" fill="none" xmlns="http://www.w3.org/2000/svg">
<path d="M7.002 20C6.882 20 6.774 19.958 6.678 19.874C6.594 19.778 6.552 19.67 6.552 19.55V17.516H0.954C0.822 17.516 0.714 17.474 0.63 17.39C0.546 17.306 0.504 17.198 0.504 17.066V15.356C0.504 15.176 0.57 14.99 0.702 14.798L5.94 7.706C6.108 7.502 6.33 7.4 6.606 7.4H9.234C9.366 7.4 9.474 7.442 9.558 7.526C9.642 7.61 9.684 7.718 9.684 7.85V14.834H11.268C11.412 14.834 11.526 14.882 11.61 14.978C11.694 15.062 11.736 15.164 11.736 15.284V17.066C11.736 17.198 11.694 17.306 11.61 17.39C11.526 17.474 11.418 17.516 11.286 17.516H9.684V19.55C9.684 19.67 9.642 19.778 9.558 19.874C9.474 19.958 9.366 20 9.234 20H7.002ZM6.624 14.96V10.712L3.6 14.96H6.624ZM19.2891 20C19.1691 20 19.0611 19.958 18.9651 19.874C18.8811 19.778 18.8391 19.67 18.8391 19.55V17.516H13.2411C13.1091 17.516 13.0011 17.474 12.9171 17.39C12.8331 17.306 12.7911 17.198 12.7911 17.066V15.356C12.7911 15.176 12.8571 14.99 12.9891 14.798L18.2271 7.706C18.3951 7.502 18.6171 7.4 18.8931 7.4H21.5211C21.6531 7.4 21.7611 7.442 21.8451 7.526C21.9291 7.61 21.9711 7.718 21.9711 7.85V14.834H23.5551C23.6991 14.834 23.8131 14.882 23.8971 14.978C23.9811 15.062 24.0231 15.164 24.0231 15.284V17.066C24.0231 17.198 23.9811 17.306 23.8971 17.39C23.8131 17.474 23.7051 17.516 23.5731 17.516H21.9711V19.55C21.9711 19.67 21.9291 19.778 21.8451 19.874C21.7611 19.958 21.6531 20 21.5211 20H19.2891ZM18.9111 14.96V10.712L15.8871 14.96H18.9111ZM25.3872 21.35C25.2912 21.35 25.2072 21.308 25.1352 21.224C25.0632 21.152 25.0332 21.062 25.0452 20.954L25.6032 17.426C25.6272 17.258 25.6932 17.114 25.8012 16.994C25.9092 16.874 26.0592 16.814 26.2512 16.814H28.3572C28.4532 16.814 28.5312 16.85 28.5912 16.922C28.6632 16.982 28.6992 17.06 28.6992 17.156C28.6992 17.24 28.6872 17.306 28.6632 17.354L27.3132 20.846C27.2412 21.002 27.1572 21.122 27.0612 21.206C26.9652 21.302 26.8272 21.35 26.6472 21.35H25.3872ZM35.2209 20.198C34.1409 20.198 33.2169 20.03 32.4489 19.694C31.6809 19.346 31.0929 18.884 30.6849 18.308C30.2889 17.732 30.0789 17.108 30.0549 16.436C30.0549 16.328 30.0909 16.238 30.1629 16.166C30.2349 16.094 30.3249 16.058 30.4329 16.058H32.8449C33.1209 16.058 33.3129 16.172 33.4209 16.4C33.7449 17.204 34.3509 17.606 35.2389 17.606C35.7669 17.606 36.2109 17.444 36.5709 17.12C36.9429 16.784 37.1289 16.322 37.1289 15.734C37.1289 15.206 36.9489 14.774 36.5889 14.438C36.2409 14.102 35.7909 13.934 35.2389 13.934C34.9269 13.934 34.6749 13.976 34.4829 14.06C34.3029 14.132 34.1169 14.24 33.9249 14.384C33.7209 14.54 33.5589 14.618 33.4389 14.618H31.0809C30.9729 14.618 30.8769 14.582 30.7929 14.51C30.7209 14.426 30.6849 14.33 30.6849 14.222L31.3329 7.94C31.3449 7.772 31.4049 7.64 31.5129 7.544C31.6329 7.448 31.7709 7.4 31.9269 7.4H39.1449C39.2769 7.4 39.3849 7.442 39.4689 7.526C39.5649 7.61 39.6129 7.718 39.6129 7.85V9.542C39.6129 9.674 39.5649 9.782 39.4689 9.866C39.3849 9.95 39.2769 9.992 39.1449 9.992H33.9249L33.6909 12.314C33.9909 12.11 34.3209 11.96 34.6809 11.864C35.0409 11.756 35.5089 11.702 36.0849 11.702C36.8409 11.702 37.5549 11.876 38.2269 12.224C38.8989 12.56 39.4329 13.04 39.8289 13.664C40.2369 14.288 40.4409 15.002 40.4409 15.806C40.4409 16.658 40.2309 17.42 39.8109 18.092C39.3909 18.752 38.7849 19.268 37.9929 19.64C37.2129 20.012 36.2889 20.198 35.2209 20.198ZM47.1997 20.18C45.5437 20.168 44.2897 19.73 43.4377 18.866C42.5857 17.99 42.1237 16.844 42.0517 15.428C42.0277 14.78 42.0157 14.204 42.0157 13.7C42.0157 13.184 42.0277 12.59 42.0517 11.918C42.0997 11.018 42.3157 10.22 42.6997 9.524C43.0957 8.816 43.6717 8.258 44.4277 7.85C45.1837 7.43 46.1077 7.22 47.1997 7.22C48.8197 7.232 50.0677 7.67 50.9437 8.534C51.8197 9.398 52.2937 10.526 52.3657 11.918C52.3897 12.59 52.4017 13.184 52.4017 13.7C52.4017 14.204 52.3897 14.78 52.3657 15.428C52.2817 16.844 51.8137 17.99 50.9617 18.866C50.1097 19.73 48.8557 20.168 47.1997 20.18ZM47.1997 17.57C47.7877 17.57 48.2257 17.378 48.5137 16.994C48.8137 16.598 48.9757 16.046 48.9997 15.338C49.0237 14.99 49.0357 14.432 49.0357 13.664C49.0357 12.896 49.0237 12.35 48.9997 12.026C48.9757 11.342 48.8197 10.802 48.5317 10.406C48.2437 10.01 47.7997 9.806 47.1997 9.794C46.6117 9.806 46.1677 10.01 45.8677 10.406C45.5797 10.802 45.4237 11.342 45.3997 12.026C45.3877 12.35 45.3817 12.896 45.3817 13.664C45.3817 14.432 45.3877 14.99 45.3997 15.338C45.4597 16.826 46.0597 17.57 47.1997 17.57Z" fill="#414141"/>
<path d="M60.52 20C60.388 20 60.274 19.958 60.178 19.874C60.094 19.79 60.052 19.682 60.052 19.55V17.894H58.72C58.6 17.894 58.492 17.852 58.396 17.768C58.312 17.672 58.27 17.564 58.27 17.444V16.76C58.27 16.628 58.312 16.52 58.396 16.436C58.48 16.352 58.588 16.31 58.72 16.31H60.052V15.392H58.72C58.6 15.392 58.492 15.35 58.396 15.266C58.312 15.17 58.27 15.062 58.27 14.942V13.574C58.27 13.442 58.312 13.334 58.396 13.25C58.492 13.166 58.6 13.124 58.72 13.124H60.052V7.85C60.052 7.718 60.094 7.61 60.178 7.526C60.274 7.442 60.388 7.4 60.52 7.4H65.56C67.096 7.4 68.302 7.754 69.178 8.462C70.054 9.158 70.492 10.19 70.492 11.558C70.492 12.83 70.054 13.79 69.178 14.438C68.314 15.074 67.108 15.392 65.56 15.392H63.418V16.31H65.83C65.962 16.31 66.07 16.352 66.154 16.436C66.238 16.52 66.28 16.628 66.28 16.76V17.444C66.28 17.564 66.238 17.672 66.154 17.768C66.07 17.852 65.962 17.894 65.83 17.894H63.418V19.55C63.418 19.682 63.37 19.79 63.274 19.874C63.19 19.958 63.082 20 62.95 20H60.52ZM65.47 13.124C65.998 13.124 66.406 12.992 66.694 12.728C66.994 12.452 67.144 12.05 67.144 11.522C67.144 11.03 67.006 10.64 66.73 10.352C66.454 10.052 66.034 9.902 65.47 9.902H63.346V13.124H65.47Z" fill="#414141"/>
<path d="M4.068 40.12C2.996 40.12 2.18 39.832 1.62 39.256C1.068 38.68 0.772 37.884 0.732 36.868C0.724 36.652 0.72 36.3 0.72 35.812C0.72 35.316 0.724 34.956 0.732 34.732C0.772 33.724 1.072 32.932 1.632 32.356C2.192 31.772 3.004 31.48 4.068 31.48C4.78 31.48 5.384 31.608 5.88 31.864C6.376 32.112 6.752 32.44 7.008 32.848C7.264 33.256 7.404 33.692 7.428 34.156V34.18C7.428 34.244 7.4 34.3 7.344 34.348C7.296 34.388 7.24 34.408 7.176 34.408H6.516C6.356 34.408 6.256 34.316 6.216 34.132C6.08 33.532 5.836 33.112 5.484 32.872C5.132 32.624 4.66 32.5 4.068 32.5C2.692 32.5 1.98 33.264 1.932 34.792C1.924 35.008 1.92 35.34 1.92 35.788C1.92 36.236 1.924 36.576 1.932 36.808C1.98 38.336 2.692 39.1 4.068 39.1C4.66 39.1 5.132 38.98 5.484 38.74C5.844 38.492 6.088 38.068 6.216 37.468C6.24 37.364 6.276 37.292 6.324 37.252C6.372 37.212 6.436 37.192 6.516 37.192H7.176C7.248 37.192 7.308 37.216 7.356 37.264C7.412 37.304 7.436 37.36 7.428 37.432C7.404 37.904 7.264 38.344 7.008 38.752C6.752 39.16 6.376 39.492 5.88 39.748C5.384 39.996 4.78 40.12 4.068 40.12ZM17.0296 39.652C17.0696 39.7 17.0896 39.752 17.0896 39.808C17.0896 39.864 17.0656 39.912 17.0176 39.952C16.9776 39.984 16.9216 40 16.8496 40H16.1176C15.9896 40 15.8856 39.94 15.8056 39.82L14.0656 37.312H12.9376V39.724C12.9376 39.804 12.9096 39.872 12.8536 39.928C12.8056 39.976 12.7416 40 12.6616 40H12.0976C12.0176 40 11.9496 39.976 11.8936 39.928C11.8456 39.872 11.8216 39.804 11.8216 39.724V34.036C11.8216 33.956 11.8456 33.892 11.8936 33.844C11.9496 33.788 12.0176 33.76 12.0976 33.76H12.6616C12.7416 33.76 12.8056 33.788 12.8536 33.844C12.9096 33.892 12.9376 33.956 12.9376 34.036V36.34H14.0416L15.6496 33.94C15.7456 33.82 15.8536 33.76 15.9736 33.76H16.5976C16.6696 33.76 16.7296 33.78 16.7776 33.82C16.8256 33.852 16.8496 33.896 16.8496 33.952C16.8496 33.992 16.8296 34.04 16.7896 34.096L15.0016 36.748L17.0296 39.652ZM19.9952 40.12C19.6032 40.12 19.2392 40.04 18.9032 39.88C18.5672 39.72 18.2992 39.504 18.0992 39.232C17.9072 38.952 17.8112 38.644 17.8112 38.308C17.8112 37.78 18.0272 37.348 18.4592 37.012C18.8992 36.668 19.4912 36.444 20.2352 36.34L22.0232 36.088V35.74C22.0232 34.924 21.5552 34.516 20.6192 34.516C20.2672 34.516 19.9792 34.592 19.7552 34.744C19.5312 34.888 19.3632 35.06 19.2512 35.26C19.2272 35.332 19.1952 35.384 19.1552 35.416C19.1232 35.448 19.0752 35.464 19.0112 35.464H18.4952C18.4232 35.464 18.3592 35.44 18.3032 35.392C18.2552 35.336 18.2312 35.272 18.2312 35.2C18.2392 35.008 18.3272 34.792 18.4952 34.552C18.6712 34.304 18.9392 34.092 19.2992 33.916C19.6592 33.732 20.1032 33.64 20.6312 33.64C21.5272 33.64 22.1712 33.852 22.5632 34.276C22.9552 34.692 23.1512 35.212 23.1512 35.836V39.724C23.1512 39.804 23.1232 39.872 23.0672 39.928C23.0192 39.976 22.9552 40 22.8752 40H22.3232C22.2432 40 22.1752 39.976 22.1192 39.928C22.0712 39.872 22.0472 39.804 22.0472 39.724V39.208C21.8712 39.464 21.6152 39.68 21.2792 39.856C20.9432 40.032 20.5152 40.12 19.9952 40.12ZM20.2472 39.22C20.7672 39.22 21.1912 39.052 21.5192 38.716C21.8552 38.372 22.0232 37.88 22.0232 37.24V36.904L20.6312 37.108C20.0632 37.188 19.6352 37.324 19.3472 37.516C19.0592 37.7 18.9152 37.936 18.9152 38.224C18.9152 38.544 19.0472 38.792 19.3112 38.968C19.5752 39.136 19.8872 39.22 20.2472 39.22ZM25.1643 42.28C25.0843 42.28 25.0163 42.252 24.9603 42.196C24.9123 42.148 24.8883 42.084 24.8883 42.004V34.036C24.8883 33.956 24.9123 33.892 24.9603 33.844C25.0163 33.788 25.0843 33.76 25.1643 33.76H25.7163C25.7963 33.76 25.8603 33.788 25.9083 33.844C25.9643 33.892 25.9923 33.956 25.9923 34.036V34.564C26.4403 33.948 27.0963 33.64 27.9603 33.64C28.8003 33.64 29.4283 33.904 29.8443 34.432C30.2683 34.96 30.4963 35.64 30.5283 36.472C30.5363 36.56 30.5403 36.696 30.5403 36.88C30.5403 37.064 30.5363 37.2 30.5283 37.288C30.4963 38.112 30.2683 38.792 29.8443 39.328C29.4203 39.856 28.7923 40.12 27.9603 40.12C27.1283 40.12 26.4803 39.82 26.0163 39.22V42.004C26.0163 42.084 25.9923 42.148 25.9443 42.196C25.8963 42.252 25.8323 42.28 25.7523 42.28H25.1643ZM27.7083 39.148C28.2763 39.148 28.6883 38.972 28.9443 38.62C29.2083 38.268 29.3523 37.804 29.3763 37.228C29.3843 37.148 29.3883 37.032 29.3883 36.88C29.3883 35.368 28.8283 34.612 27.7083 34.612C27.1563 34.612 26.7403 34.796 26.4603 35.164C26.1883 35.524 26.0403 35.956 26.0163 36.46L26.0043 36.916L26.0163 37.384C26.0323 37.856 26.1843 38.268 26.4723 38.62C26.7603 38.972 27.1723 39.148 27.7083 39.148ZM33.9327 40C33.8527 40 33.7847 39.976 33.7287 39.928C33.6807 39.872 33.6567 39.804 33.6567 39.724V34.72H31.5687C31.4887 34.72 31.4207 34.696 31.3647 34.648C31.3167 34.592 31.2927 34.524 31.2927 34.444V34.036C31.2927 33.956 31.3167 33.892 31.3647 33.844C31.4207 33.788 31.4887 33.76 31.5687 33.76H36.8487C36.9287 33.76 36.9927 33.788 37.0407 33.844C37.0967 33.892 37.1247 33.956 37.1247 34.036V34.444C37.1247 34.524 37.0967 34.592 37.0407 34.648C36.9927 34.696 36.9287 34.72 36.8487 34.72H34.7607V39.724C34.7607 39.804 34.7367 39.872 34.6887 39.928C34.6407 39.976 34.5767 40 34.4967 40H33.9327ZM40.7213 40.12C39.8413 40.12 39.1573 39.872 38.6693 39.376C38.1893 38.88 37.9333 38.22 37.9013 37.396L37.8893 36.88L37.9013 36.364C37.9333 35.548 38.1933 34.892 38.6813 34.396C39.1693 33.892 39.8493 33.64 40.7213 33.64C41.5933 33.64 42.2733 33.892 42.7613 34.396C43.2493 34.892 43.5093 35.548 43.5413 36.364C43.5493 36.452 43.5533 36.624 43.5533 36.88C43.5533 37.136 43.5493 37.308 43.5413 37.396C43.5093 38.22 43.2493 38.88 42.7613 39.376C42.2813 39.872 41.6013 40.12 40.7213 40.12ZM40.7213 39.196C41.2253 39.196 41.6213 39.036 41.9093 38.716C42.2053 38.396 42.3653 37.936 42.3893 37.336C42.3973 37.256 42.4013 37.104 42.4013 36.88C42.4013 36.656 42.3973 36.504 42.3893 36.424C42.3653 35.824 42.2053 35.364 41.9093 35.044C41.6213 34.724 41.2253 34.564 40.7213 34.564C40.2173 34.564 39.8173 34.724 39.5213 35.044C39.2253 35.364 39.0693 35.824 39.0533 36.424L39.0413 36.88L39.0533 37.336C39.0693 37.936 39.2253 38.396 39.5213 38.716C39.8173 39.036 40.2173 39.196 40.7213 39.196ZM50.36 33.76C50.424 33.76 50.48 33.784 50.528 33.832C50.584 33.88 50.612 33.936 50.612 34V39.724C50.612 39.804 50.584 39.872 50.528 39.928C50.48 39.976 50.416 40 50.336 40H49.772C49.692 40 49.624 39.976 49.568 39.928C49.52 39.872 49.496 39.804 49.496 39.724V35.368L46.172 39.82C46.084 39.94 45.98 40 45.86 40H45.32C45.248 40 45.184 39.976 45.128 39.928C45.08 39.872 45.056 39.812 45.056 39.748V34.036C45.056 33.956 45.08 33.892 45.128 33.844C45.184 33.788 45.252 33.76 45.332 33.76H45.908C45.988 33.76 46.052 33.788 46.1 33.844C46.156 33.892 46.184 33.956 46.184 34.036V38.368L49.496 33.94C49.584 33.82 49.688 33.76 49.808 33.76H50.36ZM47.864 32.932C47.224 32.932 46.764 32.792 46.484 32.512C46.204 32.232 46.064 31.872 46.064 31.432C46.064 31.368 46.084 31.316 46.124 31.276C46.164 31.228 46.22 31.204 46.292 31.204H46.7C46.772 31.204 46.828 31.228 46.868 31.276C46.908 31.316 46.928 31.368 46.928 31.432C46.928 31.936 47.24 32.188 47.864 32.188C48.488 32.188 48.8 31.936 48.8 31.432C48.8 31.368 48.82 31.316 48.86 31.276C48.9 31.228 48.956 31.204 49.028 31.204H49.448C49.52 31.204 49.576 31.228 49.616 31.276C49.656 31.316 49.676 31.368 49.676 31.432C49.676 31.864 49.532 32.224 49.244 32.512C48.964 32.792 48.504 32.932 47.864 32.932Z" fill="#BFBFBF"/>
</svg>
